<?xml version="1.0" encoding="UTF-8"?>
<svg xmlns="http://www.w3.org/2000/svg" xmlns:xlink="http://www.w3.org/1999/xlink" viewBox="0 0 64 64" width="64px" height="64px">
<g id="surface182016135">
<path style=" stroke:none;fill-rule:nonzero;fill:rgb(100%,65.490198%,14.901961%);fill-opacity:1;" d="M 60.542969 26.894531 C 59.800781 24.84375 58.878906 22.847656 57.675781 20.929688 C 56.488281 19.019531 54.976562 17.175781 53.03125 15.640625 C 51.097656 14.117188 48.5625 12.964844 45.875 12.75 L 44.875 12.699219 C 44.53125 12.710938 44.148438 12.710938 43.789062 12.75 C 43.058594 12.824219 42.367188 12.992188 41.714844 13.183594 C 40.398438 13.59375 39.246094 14.207031 38.234375 14.875 C 36.414062 16.078125 34.96875 17.472656 33.664062 18.90625 C 33.675781 18.929688 33.703125 18.945312 33.714844 18.96875 L 33.996094 19.328125 C 34.648438 20.1875 36.070312 22.15625 37.335938 24.28125 C 38.910156 22.746094 40.960938 20.890625 41.804688 20.351562 C 42.445312 19.957031 43.070312 19.648438 43.636719 19.480469 C 43.929688 19.40625 44.199219 19.339844 44.453125 19.328125 C 44.582031 19.300781 44.699219 19.316406 44.839844 19.300781 L 45.324219 19.328125 C 46.578125 19.441406 47.808594 19.957031 48.972656 20.851562 C 51.289062 22.695312 53.121094 25.832031 54.308594 29.144531 C 55.527344 32.472656 56.21875 36.109375 56.257812 39.617188 C 56.257812 41.292969 56.039062 42.90625 55.527344 44.238281 C 55.027344 45.582031 53.761719 46.09375 52.328125 46.09375 C 50.238281 46.09375 48.730469 45.195312 47.511719 43.941406 C 46.183594 42.546875 44.929688 40.984375 43.726562 39.320312 C 42.726562 37.925781 41.753906 36.480469 40.832031 35.007812 C 39.207031 32.371094 37.03125 29.03125 35.519531 26.238281 L 32 20.929688 C 31.601562 20.429688 31.21875 19.929688 30.796875 19.429688 C 29.375 17.816406 27.800781 16.230469 25.765625 14.875 C 24.753906 14.207031 23.601562 13.59375 22.285156 13.183594 C 21.632812 12.992188 20.941406 12.824219 20.210938 12.75 C 19.980469 12.722656 19.75 12.710938 19.519531 12.710938 C 19.378906 12.710938 19.25 12.699219 19.125 12.699219 L 18.125 12.75 C 15.4375 12.964844 12.902344 14.117188 10.96875 15.640625 C 9.023438 17.175781 7.511719 19.019531 6.324219 20.929688 C 5.121094 22.847656 4.199219 24.84375 3.457031 26.894531 C 2.007812 30.988281 1.230469 35.226562 1.214844 39.601562 C 1.230469 41.882812 1.523438 44.25 2.445312 46.605469 C 3.339844 48.910156 5.03125 51.355469 7.71875 52.710938 C 9.035156 53.390625 10.535156 53.746094 11.96875 53.746094 C 13.542969 53.785156 15.039062 53.335938 16.230469 52.761719 C 18.625 51.570312 20.273438 49.996094 21.773438 48.410156 C 24.730469 45.195312 26.917969 41.714844 28.941406 38.167969 C 29.503906 37.195312 30.042969 36.199219 30.566406 35.1875 C 30.296875 34.664062 30.027344 34.113281 29.746094 33.535156 C 28.953125 32.21875 27.96875 30.65625 27.25 29.566406 C 26.1875 31.488281 25.089844 33.355469 23.949219 35.210938 C 21.914062 38.4375 19.726562 41.574219 17.28125 44.148438 C 16.0625 45.402344 14.71875 46.503906 13.542969 47.027344 C 12.941406 47.28125 12.480469 47.371094 12.082031 47.347656 C 11.53125 47.347656 11.070312 47.21875 10.636719 46.988281 C 9.777344 46.539062 8.972656 45.582031 8.472656 44.238281 C 7.960938 42.90625 7.742188 41.292969 7.742188 39.617188 C 7.78125 36.109375 8.472656 32.472656 9.691406 29.144531 C 10.878906 25.832031 12.710938 22.695312 15.027344 20.851562 C 16.191406 19.957031 17.421875 19.441406 18.675781 19.328125 L 19.160156 19.300781 C 19.300781 19.316406 19.417969 19.300781 19.546875 19.328125 C 19.800781 19.339844 20.070312 19.40625 20.363281 19.480469 C 20.699219 19.585938 21.054688 19.726562 21.425781 19.917969 C 21.683594 20.042969 21.9375 20.1875 22.195312 20.351562 C 23.476562 21.171875 24.742188 22.375 25.933594 23.707031 C 26.855469 24.742188 27.738281 25.894531 28.621094 27.070312 L 32 32.308594 C 32.960938 34.292969 33.957031 36.261719 35.058594 38.167969 C 37.082031 41.714844 39.269531 45.195312 42.226562 48.410156 C 43.097656 49.34375 44.03125 50.265625 45.132812 51.097656 C 45.914062 51.710938 46.769531 52.261719 47.769531 52.761719 C 48.960938 53.335938 50.457031 53.785156 52.03125 53.746094 C 53.464844 53.746094 54.964844 53.390625 56.28125 52.710938 C 58.96875 51.355469 60.660156 48.910156 61.554688 46.605469 C 62.476562 44.25 62.769531 41.882812 62.785156 39.601562 C 62.769531 35.226562 61.992188 30.988281 60.542969 26.894531 Z M 60.542969 26.894531 "/>
</g>
</svg>
