<svg width="211" height="203" viewBox="0 0 211 203" fill="none" xmlns="http://www.w3.org/2000/svg">
  <path d="M80.8453 4.8301C80.4925 4.93525 80.3563 5.0724 80.398 5.27556C80.4409 5.46058 81.3249 9.03488 82.3679 13.2573C83.4122 17.4616 84.2452 20.978 84.2031 21.0664C84.0758 21.35 80.2924 24.1351 77.8404 25.7471C75.0467 27.5744 71.4137 29.7129 66.0178 32.6506C55.2429 38.5452 51.9681 40.7793 48.1198 44.8727C48.0426 44.9407 44.5994 41.5134 40.4813 37.2411L32.9789 29.4723L32.4966 29.8973L32.0154 30.3042L32.5261 30.8653C32.8161 31.1754 36.2003 34.6719 40.0455 38.6534C46.6247 45.4702 47.0505 45.9348 46.9627 46.4578C46.7492 47.8114 45.7982 51.597 45.1781 53.6173C42.5211 62.1796 38.0989 69.5722 31.8272 75.9722C29.9781 77.8413 26.3723 80.9841 26.0821 80.9656C25.9551 80.9575 23.0578 80.1169 19.6255 79.0964C9.18591 75.9894 8.45252 75.7787 8.37534 75.8467C8.33675 75.8807 8.22874 76.1472 8.1547 76.4524L8.01125 76.9901L15.7339 79.2862C19.9891 80.5414 24.1354 81.7896 24.9402 82.0231L26.4228 82.482L26.854 84.2958C29.8339 96.7348 29.7715 107.176 26.6387 116.346C25.9676 118.308 24.7012 121.326 24.1707 122.222C23.9265 122.626 23.0565 122.844 13.9381 124.742L3.9883 126.825L4.13163 127.436C4.23093 127.88 4.36568 128.052 4.56868 128.011C5.54861 127.781 23.2876 124.08 23.9136 123.974C24.6871 123.841 24.6871 123.841 25.8175 124.97C29.2596 128.415 33.0383 134.015 35.5044 139.349C38.1457 145.077 40.2997 152.742 41.3427 160.118L41.6037 162.03L35.5248 167.403L29.4277 172.775L29.8524 173.258L30.2771 173.741L36.4127 168.335L42.5484 162.929L44.6944 163.266C59.7555 165.592 71.7281 171.804 81.4091 182.263C82.3627 183.308 83.2406 184.111 83.354 184.046C83.6184 183.899 83.6662 183.719 82.1815 189.312C81.4222 192.089 80.8561 194.404 80.8901 194.443C80.9241 194.482 81.2086 194.591 81.4954 194.664L82.0327 194.807L83.5104 189.324C84.3403 186.296 85.0461 183.789 85.0846 183.755C85.2402 183.601 96.3841 181.357 99.2193 180.881C109.637 179.175 117.302 179.517 124.936 182.062L126.363 182.536L127.321 186.37C129.591 195.355 130.186 197.745 130.272 197.823C130.323 197.881 130.58 197.861 130.876 197.788C131.21 197.682 131.384 197.529 131.36 197.327C131.335 197.161 130.54 193.903 129.596 190.124C128.635 186.326 127.843 183.031 127.84 182.794C127.808 182.427 127.996 182.348 129.385 181.981C135.664 180.339 141.257 177.45 147.297 172.694C148.523 171.733 151.908 168.923 154.815 166.447C157.723 163.97 160.759 161.484 161.542 160.914L162.974 159.875L170.785 167.955L178.613 176.036L179.095 175.611L179.578 175.186L172.073 167.454C167.954 163.2 164.484 159.625 164.364 159.508C164.211 159.334 164.33 158.321 165.006 154.554C166.367 146.894 167.341 143.328 169.032 139.645C171.966 133.306 177.051 128.963 184.341 126.601L185.793 126.11L194.456 128.795C199.208 130.264 203.122 131.442 203.16 131.408C203.199 131.374 203.308 131.09 203.381 130.803L203.544 130.248L195.809 127.86C191.557 126.55 187.914 125.407 187.718 125.34C187.435 125.212 187.316 124.786 187.076 123.112C186.929 121.99 186.234 117.735 185.546 113.663C182.984 98.3706 182.235 90.6671 182.768 84.8498L182.949 82.8743L192.692 80.0311C198.054 78.4767 202.454 77.1708 202.492 77.155C202.568 77.1051 202.204 75.9518 202.113 75.946C202.077 75.9437 197.661 77.2121 192.316 78.7858C186.989 80.3426 182.536 81.6268 182.427 81.6199C182.083 81.5979 179.544 79.1214 178.003 77.2916C174.614 73.3027 172.819 70.0167 167.574 58.2538C166.538 55.9276 165.226 53.0734 164.662 51.9073L163.633 49.7638L164.701 48.7199C165.284 48.1372 168.585 44.9204 172.057 41.5869L178.363 35.5172L177.94 34.9981L177.517 34.4972L174.297 37.5916C172.512 39.3009 169.621 42.0881 167.874 43.7815C166.109 45.4737 164.305 47.2181 163.839 47.6625C163.082 48.3981 162.989 48.4286 162.808 48.1255C162.693 47.9358 161.232 47.1319 159.587 46.3528C142.806 38.4309 134.76 32.341 129.052 23.2647L128.44 22.2961L130.077 16.312C130.961 13.0142 131.679 10.3075 131.68 10.2894C131.663 10.27 131.395 10.1983 131.071 10.123C130.624 10.0034 130.475 10.0486 130.388 10.28C130.323 10.4399 129.678 12.8415 128.938 15.6015C128.198 18.3616 127.47 20.9401 127.336 21.3326L127.072 22.0449L123.294 22.7341C117.359 23.8329 112.152 24.3764 106.462 24.4882C103.161 24.5515 95.3529 23.8905 92.4757 23.3064C90.0293 22.8226 86.6955 21.9724 86.1289 21.7176C85.7923 21.5686 85.4465 20.4164 83.6528 13.1021C82.5093 8.45406 81.5122 4.65381 81.4566 4.6685C81.4022 4.66503 81.1243 4.73849 80.8453 4.8301ZM125.303 28.9502L123.923 34.0392L121.896 34.4206C113.177 36.053 104.934 36.4945 98.4673 35.6454C94.1138 35.0767 89.067 33.9535 88.7693 33.4788C88.7037 33.3653 88.4765 32.6399 88.288 31.8806C86.4931 24.5844 86.1636 23.1781 86.2905 23.1862C86.3812 23.1919 87.0081 23.3594 87.6882 23.5485C94.6867 25.4887 104.458 26.2199 113.195 25.4454C116.236 25.165 121.162 24.4759 124.221 23.9051C125.751 23.6197 126.632 23.5117 126.661 23.6411C126.672 23.7511 126.065 26.1369 125.303 28.9502ZM130.643 27.7589C132.897 30.6913 136.123 33.8131 139.721 36.5212C144.31 39.9849 149.142 42.7715 157.872 46.9728C159.994 47.9828 161.79 48.9538 161.87 49.123C161.965 49.3478 161.317 50.0903 159.007 52.3312C154.99 56.2134 154.681 56.4854 154.536 56.2027C154.471 56.071 152.656 55.1169 150.535 54.0888C137.245 47.6833 130.868 42.848 126.158 35.5668L125.227 34.1587L126.37 29.9296C126.991 27.6176 127.61 25.3238 127.749 24.8587L127.986 23.9988L128.633 24.9879C128.982 25.5205 129.885 26.781 130.643 27.7589ZM86.0346 28.0733L87.3227 33.3139L86.6698 34.129C83.9993 37.4589 79.4308 41.7069 75.7519 44.2799C73.3315 45.9669 69.8869 48.008 66.7636 49.5774C63.6222 51.1456 57.0664 53.9912 56.7626 53.8989C56.5302 53.8295 49.0889 46.2468 48.9962 45.9857C48.9217 45.7258 51.5584 43.2141 53.2799 41.9201C56.4563 39.5156 59.7728 37.4846 66.5438 33.8324C73.4849 30.0817 79.4735 26.4162 82.6931 23.9051C83.5363 23.2478 84.334 22.7335 84.4779 22.7609C84.6582 22.7906 85.1812 24.592 86.0346 28.0733ZM123.49 35.7069C123.424 35.8849 122.736 38.3931 121.951 41.2961C121.147 44.1979 120.426 46.6493 120.349 46.7173C120.118 46.9213 115.02 47.7453 112.032 48.0473C105.266 48.7468 99.0295 48.2952 93.2836 46.7082C92.6216 46.5202 91.9982 46.2983 91.9303 46.221C91.7955 46.0484 89.1457 35.5808 89.1653 35.2722C89.1723 35.1632 89.6779 35.2319 90.3229 35.4005C92.5605 36.0169 95.0613 36.5041 98.2221 36.9241C104.78 37.7789 114.081 37.2954 122.016 35.6859C123.658 35.353 123.622 35.3507 123.49 35.7069ZM125.373 36.7381C126.028 37.8918 128.327 40.6994 129.713 42.1C134.525 46.9269 140 50.4835 150.093 55.3184C151.843 56.1589 153.394 56.9685 153.53 57.123C153.735 57.3366 153.692 57.4432 153.188 57.9215C152.509 58.5709 146.086 64.779 146.006 64.8833C145.967 64.9173 145.844 64.8547 145.723 64.7559C145.603 64.6389 143.997 63.8258 142.142 62.9239C138.112 60.9904 133.382 58.3197 131.241 56.7616C127.704 54.2216 124.643 51.092 122.719 48.1259L121.823 46.7382L123.275 41.3804C124.064 38.4229 124.763 36.0248 124.835 36.0295C124.89 36.0329 125.142 36.3589 125.373 36.7381ZM89.0882 40.4988C89.7848 43.2956 90.4079 45.8143 90.4643 46.073C90.5829 46.4998 90.4205 46.7629 89.1047 48.265C87.1985 50.4587 83.3033 53.8564 80.8682 55.4878C77.2928 57.8669 73.3367 59.9301 68.039 62.1813L65.6057 63.2113L61.7776 59.2491C59.6573 57.0726 57.9166 55.2301 57.903 55.1563C57.8895 55.0826 59.4313 54.324 61.3598 53.4988C67.5219 50.8287 72.2382 48.267 76.7533 45.1457C79.2884 43.3749 84.0769 39.1043 86.0625 36.8064C86.9276 35.8042 87.6836 35.0867 87.7311 35.1991C87.7967 35.3127 88.4098 37.7031 89.0882 40.4988ZM163.692 52.8481C164.27 54.0698 165.756 57.3361 166.999 60.1312C171.212 69.5134 172.461 71.9261 174.949 75.4749C176.252 77.326 179.054 80.5302 180.263 81.5732L180.92 82.1255L176.149 83.5353L171.38 84.9269L170.411 84.118C168.907 82.8556 165.995 79.371 164.807 77.4361C163.206 74.8187 162.122 72.6717 159.459 66.7238C158.117 63.7584 156.647 60.5295 156.161 59.569L155.308 57.8012L156.029 57.0633C156.749 56.3435 162.573 50.6807 162.61 50.6648C162.63 50.6478 163.113 51.6447 163.692 52.8481ZM118.832 52.8184C118.146 55.3084 117.539 57.4025 117.461 57.4887C117.384 57.5567 116.369 57.7655 115.21 57.9469C109.579 58.8463 104.542 58.9997 100.556 58.3814C98.2285 58.0328 94.7643 57.229 94.5616 56.9791C94.4597 56.8633 92.2232 47.9167 92.2823 47.8475C92.3015 47.8305 92.8763 47.9582 93.5564 48.1473C96.439 48.9324 98.262 49.1942 102.925 49.4728C106.844 49.7222 108.082 49.7281 110.299 49.5228C113.157 49.2672 116.592 48.8114 118.657 48.4142C119.376 48.2777 119.964 48.1876 119.998 48.2262C120.033 48.2466 119.502 50.309 118.832 52.8184ZM124.571 52.5092C128.482 56.8959 133.144 60.0545 142.018 64.3013C143.537 65.0361 144.787 65.7171 144.779 65.8442C144.772 65.9532 143.369 67.395 141.661 69.0544L138.557 72.0468L135.322 70.4921C128.537 67.1984 124.768 64.607 121.846 61.2858C120.913 60.2056 119.869 58.8632 119.541 58.2955L118.951 57.2554L119.878 53.851C120.38 51.969 120.923 50.0167 121.066 49.479L121.329 48.4932L121.93 49.3517C122.247 49.8094 123.432 51.2336 124.571 52.5092ZM92.1588 52.9436L93.3363 57.6302L92.7232 58.3933C91.7342 59.6245 88.0455 62.926 86.2537 64.1791C84.3667 65.499 81.8513 66.9613 79.7082 68.0097C77.2453 69.2201 73.2239 70.8781 72.9938 70.7723C72.8884 70.7109 71.399 69.2125 69.6718 67.4438L66.5616 64.22L68.658 63.3327C74.0306 61.0497 78.5539 58.6581 82.0398 56.2551C84.2889 54.6848 88.1455 51.321 89.7179 49.5071C90.3071 48.8337 90.852 48.2851 90.9075 48.2704C90.962 48.2739 91.5198 50.3874 92.1588 52.9436ZM52.1473 51.1444C54.7432 53.8616 55.6763 54.9417 55.6579 55.2322C55.6071 56.031 54.6608 59.744 53.9623 61.8505C51.2478 70.1721 45.8511 77.9949 39.0566 83.4501L37.7515 84.4972L32.7992 83.0337C30.0821 82.2227 27.8299 81.5508 27.7947 81.5303C27.7777 81.511 28.6881 80.6575 29.8276 79.6364C39.3683 71.093 45.0428 61.1917 48.0213 47.8559C48.1239 47.3885 48.2431 47.232 48.3825 47.332C48.5048 47.4127 50.1811 49.1235 52.1473 51.1444ZM155.112 60.3225C155.545 61.2432 156.889 64.1723 158.102 66.8562C161.47 74.3436 162.361 76.0774 164.239 78.9129C165.452 80.7582 167.534 83.2422 168.826 84.4181C169.342 84.8884 169.698 85.3121 169.621 85.3801C169.543 85.4481 167.406 86.1141 164.846 86.8444C162.303 87.5939 160.077 88.236 159.909 88.2982C159.705 88.3582 159.147 87.9581 158.168 87.039C155.09 84.1636 153.29 81.2419 149.925 73.7182C149.033 71.711 147.897 69.2326 147.415 68.2176C146.933 67.2026 146.571 66.3046 146.614 66.2162C146.658 66.0914 154.155 58.7486 154.286 58.7023C154.305 58.6853 154.677 59.4198 155.112 60.3225ZM117.071 59.3232C116.982 59.5727 116.338 61.9743 115.604 64.6435C114.886 67.3321 114.254 69.5522 114.215 69.5861C113.964 69.8071 108.428 70.3662 106.533 70.3732C102.618 70.361 97.7557 69.4865 97.4379 68.7553C97.2139 68.2671 94.9248 58.7157 95.002 58.6477C95.0406 58.6137 95.9577 58.7996 97.0346 59.0505C99.7971 59.7185 103.887 60.1428 106.897 60.061C110.054 59.9702 115.007 59.4105 117.153 58.8909C117.191 58.8751 117.142 59.0725 117.071 59.3232ZM121.119 62.4062C123.976 65.5957 128.043 68.3882 134.315 71.4305C135.977 72.2289 137.314 72.9703 137.307 73.0792C137.297 73.2426 130.248 80.1217 130.103 80.1125C129.903 80.0998 124.715 77.4728 123.643 76.8577C120.552 75.0569 117.678 72.4132 116.343 70.2137L115.735 69.1725L116.856 64.9967C117.474 62.721 118.093 60.4454 118.233 59.9622L118.469 59.1023L118.97 59.8268C119.253 60.2458 120.218 61.4009 121.119 62.4062ZM61.6317 60.9715C64.0588 63.4774 64.9071 64.461 64.8874 64.7697C64.8378 65.5503 63.8737 68.9706 63.2369 70.6799C60.8727 76.9276 57.7042 81.5017 52.666 85.9751C51.2564 87.2343 50.6513 87.8702 50.7112 88.0745C50.7869 88.3163 50.712 88.348 50.4083 88.2558C50.194 88.1874 47.7264 87.4653 44.9198 86.6305C42.1132 85.7956 39.7363 85.0793 39.6127 85.0167C39.4881 84.9723 40.2691 84.1471 41.3893 83.1429C48.862 76.473 53.951 68.0474 56.2665 58.552C56.4694 57.6535 56.7084 56.7573 56.7779 56.5248C56.9179 56.0415 56.3164 55.4746 61.6317 60.9715ZM95.086 64.7777L96.4181 70.1851L95.6382 70.9922C93.0807 73.6913 89.09 76.2991 84.5591 78.2346C82.9301 78.933 81.9692 79.4369 81.9009 79.6513C81.811 79.919 81.0193 79.1941 78.0304 76.0692C75.9452 73.9131 74.2589 72.0741 74.2635 72.0015C74.2693 71.9107 75.6409 71.2507 77.3266 70.5195C81.1122 68.8464 83.337 67.6574 86.1318 65.8119C88.1844 64.4661 92.3621 60.9222 93.1411 59.8417C93.3398 59.5809 93.5532 59.3757 93.6258 59.3804C93.6984 59.385 94.3454 61.8141 95.086 64.7777ZM148.121 72.8743C152.16 81.8262 153.937 84.8194 156.857 87.5936C157.51 88.2185 158.003 88.7784 157.927 88.8283C157.85 88.8781 155.974 89.4514 153.766 90.0947L149.721 91.259L148.773 90.4149C146.238 88.1755 144.565 85.5535 141.659 79.1163C140.62 76.8445 139.612 74.6477 139.402 74.2151L139.013 73.4612L142.236 70.3305L145.475 67.2192L145.8 67.8414C145.979 68.1809 147.018 70.4526 148.121 72.8743ZM70.1771 69.8092C73.1502 72.8967 72.9536 72.2645 71.9284 75.4985C70.2183 80.9128 67.5117 85.0971 63.201 89.0153C61.5961 90.4807 61.3804 90.7222 61.4627 91.1467C61.5462 91.553 61.5053 91.6233 61.2389 91.5153C61.061 91.4492 59.0059 90.8263 56.6652 90.1122C54.3234 89.4163 52.3228 88.7968 52.2356 88.7366C51.9399 88.5173 52.0988 88.3087 53.6651 86.8772C59.3651 81.735 63.2724 75.5674 65.2859 68.5318C65.6137 67.3861 65.9403 66.2585 66.0086 66.0441C66.1258 65.6323 66.144 65.6335 66.8439 66.3707C67.2369 66.7785 68.741 68.3325 70.1771 69.8092ZM120.001 75.9879C121.566 77.163 125.185 79.2526 127.502 80.3298C128.369 80.7313 129.038 81.102 128.997 81.1723C128.976 81.2256 127.886 82.3228 126.566 83.6059L124.161 85.9137L123.347 85.5337C118.343 83.1555 116.168 81.5588 114.089 78.7287L113.402 77.7918L114.29 74.4214L115.178 71.051L116.894 73.0013C117.846 74.0645 119.236 75.4107 120.001 75.9879ZM113.842 71.1483C113.84 71.1846 113.411 72.7796 112.891 74.6605C112.369 76.5595 111.942 78.1181 111.941 78.1363C111.939 78.1726 110.965 78.3111 109.79 78.4551C107.054 78.8096 103.26 78.6045 101.113 77.994C100.325 77.7798 99.6461 77.5725 99.6303 77.5351C99.5102 77.418 97.8802 70.6792 97.9381 70.6282C97.9767 70.5942 98.8043 70.7563 99.7735 70.982C103.02 71.7719 108.514 71.8846 112.198 71.2259C113.285 71.0399 113.852 71.0031 113.842 71.1483ZM97.0007 72.4825C97.0671 72.8695 97.4577 74.462 97.8495 76.0364L98.5788 78.8899L98.1837 79.3752C97.0165 80.8321 93.8451 82.8723 90.4134 84.422C88.5575 85.2518 88.2352 85.45 88.135 85.8811C88.012 86.3836 87.9599 86.3439 85.5339 83.8198C83.7047 81.9352 83.0457 81.1277 83.0313 80.7805C83.0227 80.3424 83.194 80.2257 85.329 79.3044C89.5615 77.4775 92.5581 75.6084 95.1347 73.184C95.9292 72.4326 96.6419 71.8217 96.7157 71.8082C96.7882 71.8128 96.9149 72.1125 97.0007 72.4825ZM139.87 78.328C143.093 85.4963 144.257 87.539 146.644 90.0971C147.446 90.9502 148.073 91.6828 148.035 91.7168C147.996 91.7508 145.86 92.3987 143.281 93.1459L138.604 94.5252L138.122 94.0753C136.764 92.804 135.613 91.4184 134.889 90.2057C134.215 89.069 130.873 82.039 130.794 81.56C130.766 81.4307 137.877 74.4279 138.04 74.4383C138.096 74.4236 138.913 76.189 139.87 78.328ZM78.1574 78.0824C81.8497 81.8901 81.6427 81.4212 80.6819 83.9302C79.4151 87.2401 77.489 90.034 74.8773 92.438C73.311 93.8694 73.2315 93.9738 73.3829 94.4573C73.4745 94.7366 73.5116 95.0124 73.473 95.0464C73.4344 95.0804 71.0551 94.4003 68.176 93.5609C61.7944 91.66 62.0163 91.8928 64.5339 89.5376C68.6188 85.7327 71.6175 80.9654 73.2265 75.7087L73.8694 73.617L74.3983 74.1792C74.6701 74.4882 76.3804 76.2376 78.1574 78.0824ZM181.415 85.511C181.027 91.611 181.819 99.4995 184.261 113.818C184.609 115.791 185.106 118.867 185.394 120.635C185.664 122.402 185.924 124.041 185.965 124.262C186.016 124.612 185.957 124.681 185.631 124.642C185.395 124.627 183 123.909 180.304 123.063L175.392 121.529L173.859 116.711C170.371 105.679 169.403 100.842 169.568 95.0924C169.658 91.9628 170.06 89.637 170.934 87.3594L171.329 86.2909L176.212 84.8335C178.904 84.0387 181.204 83.3831 181.331 83.3912C181.496 83.3834 181.515 83.9315 181.415 85.511ZM110.608 83.0642L109.711 86.2882L108.972 86.4599C108.196 86.6293 104.726 86.4814 102.776 86.2114L101.694 86.0514L100.854 82.6439C100.389 80.7915 100.051 79.2206 100.109 79.1696C100.149 79.1175 100.635 79.2031 101.153 79.3637C103.461 80.021 108.406 80.1716 110.843 79.6523C111.157 79.5811 111.411 79.5973 111.443 79.6722C111.473 79.7653 111.103 81.2911 110.608 83.0642ZM115.246 82.0287C116.671 83.3954 118.297 84.465 120.803 85.7182C121.986 86.3039 122.992 86.8236 123.024 86.8804C123.058 86.919 122.317 87.6921 121.367 88.5977C120.417 89.5033 119.368 90.5303 119.038 90.8556L118.434 91.4734L116.863 90.6807C114.587 89.5333 113.474 88.6969 112.257 87.2158L111.174 85.9074L111.908 83.2381C112.313 81.7509 112.713 80.3181 112.806 80.0141L112.985 79.4787L113.591 80.2646C113.927 80.7053 114.678 81.5004 115.246 82.0287ZM99.8217 83.9818L100.663 87.3711L100.101 87.9004C99.2496 88.6847 97.4331 89.754 95.7292 90.484C94.326 91.0691 94.1921 91.17 94.103 91.7112C94.046 92.0356 93.938 92.3022 93.8484 92.2783C93.7577 92.2725 92.659 91.2182 91.4109 89.9357C88.4683 86.9413 88.4493 86.6667 91.0517 85.5563C93.3159 84.6068 95.8722 83.0742 97.5439 81.7041C98.3134 81.0604 98.9648 80.555 98.9636 80.5732C98.9818 80.5743 99.3758 82.1124 99.8217 83.9818ZM131.224 85.6887C133.089 89.8724 133.991 91.4427 135.602 93.3134C136.333 94.1437 136.849 94.9057 136.772 94.9737C136.695 95.0417 135.281 95.4986 133.612 95.9756L130.604 96.8779L129.447 95.583C128.052 94.0359 127.312 92.7858 125.891 89.633C124.821 87.2681 124.824 87.2318 125.177 86.835C125.708 86.2126 129.589 82.4677 129.698 82.4746C129.752 82.4781 130.443 83.9256 131.224 85.6887ZM169.67 86.8961C169.666 86.9506 169.438 87.6834 169.164 88.5592C168.73 89.9351 168.632 90.6215 168.415 94.0347C168.153 98.1558 168.211 99.2532 168.915 103.363C169.369 105.962 171.007 112.009 172.554 116.901C173.27 119.098 173.809 120.937 173.79 120.953C173.673 121.074 162.886 117.689 162.699 117.477C162.444 117.205 160.248 110.194 159.416 106.951C158.169 102.205 157.716 97.8743 158.121 94.6555C158.339 92.9377 158.929 90.5326 159.253 90.0246C159.353 89.8852 161.661 89.1024 164.408 88.293C169.401 86.8244 169.679 86.7509 169.67 86.8961ZM84.8239 84.9595C85.952 86.1249 87.0461 87.2518 87.2681 87.4847L87.6418 87.9095L87.145 89.1356C86.1331 91.5867 84.9907 93.2275 83.0373 95.0171L81.7809 96.1584L81.9331 96.9155C81.9984 97.3207 82.0321 97.6509 81.9777 97.6474C81.8688 97.6405 75.6481 95.7863 75.2741 95.6532C75.1143 95.5883 74.915 95.284 74.8258 94.9684C74.6779 94.4304 74.7188 94.3601 76.1523 93.0113C78.9604 90.3828 81.0662 87.0535 82.2893 83.2852C82.4451 82.8394 82.6075 82.5763 82.6562 82.6705C82.723 82.7659 83.6959 83.794 84.8239 84.9595ZM157.708 90.5461C157.369 91.2901 156.829 94.0628 156.734 95.5515C156.442 100.145 157.389 105.309 160.044 113.699C160.604 115.484 161.021 116.951 160.982 116.985C160.885 117.088 152.026 114.319 151.89 114.164C151.688 113.914 149.803 107.743 149.285 105.577C148.388 101.929 148.176 100.093 148.377 97.2252C148.474 95.7002 148.673 94.2911 148.855 93.7194L149.17 92.7733L153.347 91.5263C155.65 90.8343 157.597 90.2838 157.689 90.2714C157.763 90.2579 157.773 90.3861 157.708 90.5461ZM124.757 90.2899C126.017 93.1044 127.281 95.2811 128.189 96.1774C128.634 96.6249 128.917 97.044 128.854 97.1858C128.79 97.3275 127.468 97.7902 125.909 98.2379C124.369 98.6867 122.977 99.0903 122.83 99.1173C122.662 99.1796 122.611 99.1216 122.71 99.0003C122.79 98.8779 122.442 98.3453 121.864 97.6888C120.947 96.646 119.172 93.325 119.211 92.7258C119.224 92.508 123.499 88.2959 123.718 88.2916C123.792 88.2781 124.262 89.183 124.757 90.2899ZM111.333 88.2872C111.968 89.1843 114.072 90.7582 115.75 91.576C116.509 91.9524 117.196 92.3242 117.264 92.4014C117.315 92.4594 116.61 93.2348 115.68 94.1053L113.996 95.6751L112.536 94.853C111.587 94.3187 110.806 93.7039 110.28 93.1053L109.502 92.1626L110.101 89.904C110.435 88.6493 110.737 87.6295 110.791 87.6329C110.846 87.6364 111.082 87.9249 111.333 88.2872ZM109.252 88.0636C109.203 88.261 108.898 89.3353 108.589 90.4822L108.019 92.5604L107.396 92.6301C107.046 92.6808 106.067 92.6184 105.181 92.5074C104.008 92.3416 103.571 92.332 103.505 92.5101C103.462 92.6167 103.385 92.6847 103.334 92.6268C103.199 92.4542 102.201 88.107 102.221 87.7802C102.239 87.5079 102.494 87.5059 104.647 87.734C105.951 87.8535 107.495 87.9153 108.045 87.8592C108.595 87.803 109.127 87.7457 109.219 87.7334C109.291 87.738 109.318 87.8855 109.252 88.0636ZM33.3588 84.5458L38.4018 86.0151L38.7437 87.5134C40.6511 95.6187 41.0025 102.987 39.8141 109.364C39.2644 112.282 37.482 117.4 36.3107 119.495L35.9619 120.111L30.8481 121.189C28.0241 121.775 25.7184 122.229 25.7219 122.175C25.7242 122.139 26.1994 120.966 26.7792 119.581C28.8858 114.52 29.8155 110.496 30.1869 104.65C30.4523 100.475 30.4021 98.685 29.9441 94.4269C29.5624 90.9757 28.4803 85.0738 27.8769 83.1032C27.8147 82.9352 27.8919 82.8672 28.0506 82.9502C28.1934 82.9957 30.5704 83.7121 33.3588 84.5458ZM101.648 91.3529L102.225 93.741L101.691 94.1263C101.405 94.3268 100.632 94.7334 99.9956 95.0027C98.9077 95.4986 98.8305 95.5666 98.6755 96.2858C98.5934 96.7181 98.4626 97.0561 98.4082 97.0526C98.3538 97.0492 97.5654 96.2699 96.6435 95.2998L94.9877 93.5538L95.2187 92.7847C95.4293 92.0508 95.5258 91.9658 96.6863 91.4746C98.0146 90.9211 99.9639 89.7692 100.565 89.1877C100.779 88.9826 100.968 88.867 101.002 88.9057C101.036 88.9443 101.331 90.0385 101.648 91.3529ZM93.4532 93.9119C93.4509 93.9482 93.3031 94.2669 93.1156 94.6378C92.6554 95.5746 91.7243 96.7548 90.738 97.6581C89.9265 98.3903 89.9037 98.4618 90.0289 99.0713C90.1981 99.8476 90.1921 100.23 90.0006 100.09C89.9303 100.049 88.5735 99.6166 87.0172 99.1712C85.4439 98.7065 83.9794 98.2488 83.7857 98.1453C83.5386 98.0202 83.3757 97.7182 83.3308 97.2779C83.2442 96.6343 83.3044 96.547 84.2725 95.6426C85.9183 94.1068 87.5014 91.8379 88.2417 89.9346C88.394 89.5432 88.5634 89.1712 88.6055 89.0827C88.6656 88.9954 93.4624 93.7666 93.4532 93.9119ZM45.4624 88.1233C48.4118 89.0036 50.9112 89.8007 51.0312 89.9177C51.3053 90.1904 52.1385 94.5635 52.4394 97.2804C52.9797 101.963 52.6138 106.861 51.4699 110.817C50.9793 112.517 50.113 114.686 49.1084 116.737C49.0038 116.949 49.0332 117.06 49.1965 117.07C49.9039 117.115 48.552 117.467 43.4744 118.547C40.3544 119.205 37.7902 119.717 37.755 119.696C37.7199 119.676 38.0235 118.911 38.4282 117.989C41.7404 110.581 42.595 102.578 41.1245 93.0422C40.8103 91.1082 40.0695 87.2879 39.8571 86.6181C39.813 86.4513 39.8539 86.381 39.9411 86.4412C40.0284 86.5014 42.5119 87.261 45.4624 88.1233ZM147.398 94.2829C147.05 96.0289 146.934 99.576 147.152 101.303C147.467 103.802 148.228 107.023 149.318 110.501C149.863 112.249 150.299 113.698 150.296 113.753C150.293 113.789 150.078 113.739 149.811 113.631C149.527 113.522 147.223 112.81 144.669 112.009C142.114 111.227 139.939 110.487 139.837 110.371C139.513 110.022 138.172 105.325 137.748 103.111C137.403 101.376 137.371 100.735 137.501 98.684C137.584 97.3769 137.71 96.2547 137.768 96.2037C137.884 96.1017 147.17 93.2841 147.463 93.2662C147.536 93.2527 147.507 93.7247 147.398 94.2829ZM118.944 95.4796C119.394 96.4378 120.1 97.6494 120.539 98.1877C121.534 99.4359 121.473 99.5414 119.023 100.26C117 100.861 116.872 100.871 116.89 100.58C116.898 100.453 116.599 99.9968 116.245 99.555C115.873 99.0938 115.395 98.316 115.173 97.7915L114.776 96.8731L116.35 95.3145C117.225 94.4406 117.98 93.7412 118.035 93.7447C118.089 93.7482 118.512 94.5407 118.944 95.4796ZM57.26 91.6448C59.7265 92.3851 61.7781 93.0625 61.8449 93.1579C61.9931 93.4043 62.5802 96.7774 62.8466 98.8906C62.9893 100.085 62.9924 101.47 62.8435 103.812C62.6059 107.552 62.1308 109.582 60.8158 112.505C60.1997 113.888 60.104 114.247 60.267 114.549C60.3643 114.737 60.4253 114.923 60.3867 114.957C60.1564 115.143 50.8804 116.941 50.7785 116.825C50.7105 116.747 51.0496 115.712 51.5248 114.539C54.2239 107.893 54.687 101.178 53.0431 92.6524C52.7974 91.3608 52.6273 90.3109 52.6817 90.3144C52.7361 90.3179 54.8105 90.9238 57.26 91.6448ZM109.856 94.6095C110.252 94.981 111.105 95.6004 111.756 95.9517C112.407 96.3213 112.951 96.6475 112.947 96.702C112.944 96.7564 112.556 97.1328 112.092 97.5408L111.263 98.2718L110.404 97.7432C109.93 97.4578 109.306 96.9624 108.998 96.6511L108.452 96.0696L108.721 94.993C108.869 94.3826 109.027 93.9005 109.081 93.904C109.118 93.9063 109.48 94.221 109.856 94.6095ZM107.585 94.228C107.541 94.3528 107.359 94.9245 107.195 95.4974L106.911 96.5365L105.921 96.3459C105.165 96.2067 104.872 96.2245 104.604 96.4262C104.316 96.663 104.266 96.587 104.026 95.4962C103.645 93.7585 103.682 93.7426 105.859 93.8812C107.274 93.9712 107.67 94.0511 107.585 94.228ZM136.192 98.3637C135.928 101.081 136.561 104.876 137.938 109.011C138.092 109.458 138.158 109.845 138.118 109.897C138.062 109.93 136.487 109.483 134.611 108.908L131.2 107.853L130.744 106.42C129.914 103.724 129.666 102.177 129.77 100.252L129.866 98.4532L133.023 97.5058C134.768 96.9789 136.216 96.5606 136.27 96.5641C136.326 96.5494 136.292 97.3675 136.192 98.3637ZM103.063 97.4583C103.057 97.5672 102.751 97.7848 102.394 97.9625C101.981 98.155 101.671 98.4451 101.599 98.714C101.346 99.5546 101.258 99.786 101.131 99.7779C101.059 99.7733 100.644 99.4188 100.216 98.9905L99.4263 98.2293L99.6993 97.3718C99.9496 96.5857 100.067 96.4655 101.271 95.8495L102.569 95.203L102.814 96.2211C102.96 96.7955 103.07 97.3493 103.063 97.4583ZM96.1205 96.6518C97.0084 97.5833 97.7219 98.3943 97.7173 98.4669C97.7126 98.5395 97.3584 98.9545 96.9123 99.3818C96.1722 100.137 96.1313 100.207 96.2712 100.872C96.3558 101.26 96.4212 101.665 96.4142 101.774C96.4062 101.902 95.5265 101.7 94.0427 101.259L91.685 100.526L91.4988 99.7299C91.3138 98.9161 91.3319 98.9172 92.0504 98.2156C92.8256 97.4811 94.2622 95.5128 94.2841 95.1678C94.291 95.0589 94.3512 94.9716 94.4056 94.9751C94.46 94.9785 95.2314 95.7385 96.1205 96.6518ZM67.1091 94.5866C68.968 95.1424 71.2566 95.8167 72.2042 96.0958C73.9022 96.6048 73.9373 96.6253 74.0104 97.195C74.044 97.5253 74.1735 98.3538 74.2737 99.0711C74.375 99.7702 74.4491 101.47 74.4181 102.817C74.3651 105.657 73.9742 107.51 72.9295 109.904L72.2919 111.34L72.7551 111.789C72.9941 112.041 73.181 112.253 73.1424 112.287C73.0096 112.37 62.1752 114.615 61.9575 114.601C61.5766 114.577 61.5637 113.92 61.9182 113.214C62.3785 112.277 63.1997 109.959 63.5891 108.417C63.8032 107.628 64.0023 105.927 64.1192 103.802C64.3384 100.353 64.1788 97.9911 63.5439 94.7972C63.3488 93.8552 63.3502 93.5454 63.5135 93.5558C63.6405 93.5638 65.2501 94.0308 67.1091 94.5866ZM115.273 100.514C115.727 100.816 115.259 101.315 114.2 101.63C113.177 101.966 113.123 101.963 113.234 101.642C113.301 101.446 113.21 101.166 112.987 100.952C112.799 100.757 112.515 100.357 112.352 100.055L112.059 99.5073L112.876 98.6843L113.674 97.8784L114.378 99.1263C114.77 99.8257 115.187 100.436 115.273 100.514ZM109.69 98.9373C110.268 99.3022 110.268 99.3022 109.902 99.6252C109.476 100.017 109.083 99.9012 108.294 99.1219C107.882 98.7311 107.787 98.5063 107.884 98.1297L108.006 97.6452L108.559 98.1179C108.852 98.3735 109.356 98.752 109.69 98.9373ZM128.394 100.128C128.301 101.58 128.563 103.474 129.142 105.553C129.396 106.426 129.584 107.185 129.581 107.239C129.576 107.312 128.091 106.889 126.27 106.318C123.251 105.378 122.968 105.251 122.833 104.805C122.543 103.911 122.263 102.308 122.26 101.487L122.257 100.685L125.135 99.8109C126.713 99.3463 128.122 98.962 128.249 98.9701C128.395 98.9611 128.446 99.3107 128.394 100.128ZM106.438 98.2381C106.38 98.5808 106.223 98.7531 105.985 98.7744C105.783 98.798 105.483 98.9429 105.31 99.0778C105.024 99.2783 104.971 99.2567 104.855 98.7936C104.63 98.0319 104.982 97.6533 105.834 97.7076C106.487 97.7491 106.521 97.7877 106.438 98.2381ZM78.8182 98.0661C80.7123 98.6424 82.3161 99.2002 82.3806 99.3318C82.4451 99.4636 82.5576 100.273 82.6304 101.134C82.798 103.369 82.4724 105.626 81.6913 107.6L81.0602 109.219L81.5687 109.816C81.9594 110.26 82.0227 110.41 81.8185 110.47C81.6699 110.515 80.0447 110.867 78.1802 111.259L74.8209 111.957L74.319 111.542L73.8353 111.128L74.4186 109.689C74.7426 108.889 75.1568 107.531 75.338 106.685C75.7552 104.707 75.8546 100.849 75.5214 98.6401C75.3954 97.7571 75.3134 97.041 75.3315 97.0422C75.3678 97.0445 76.923 97.508 78.8182 98.0661ZM103.649 99.4277C103.784 99.8738 103.383 101.033 102.934 101.497C102.544 101.909 102.461 104.073 102.814 104.533C102.983 104.744 103.154 105.211 103.222 105.562C103.317 106.078 103.453 106.233 103.884 106.333C104.332 106.453 104.399 106.53 104.315 106.998C104.259 107.305 104.189 107.555 104.169 107.572C104.149 107.608 103.739 107.472 103.277 107.279C102.656 107.02 102.398 106.785 102.293 106.432C102.218 106.172 102.015 105.649 101.855 105.292C101.647 104.842 101.615 104.493 101.727 104.154C101.817 103.886 101.853 103.615 101.783 103.556C101.58 103.324 101.397 101.618 101.567 101.519C101.794 101.388 102.734 99.7705 102.755 99.4438C102.77 99.2077 103.018 99.0412 103.383 99.028C103.456 99.0145 103.572 99.2041 103.649 99.4277ZM99.4842 100.183C99.8398 100.607 100.106 101.007 100.082 101.096C100.04 101.185 100.068 101.606 100.113 102.046C100.158 102.487 100.168 102.888 100.112 102.921C100.054 102.972 99.5312 102.884 98.9225 102.718L97.849 102.413L97.7049 101.528C97.5947 100.683 97.6186 100.593 98.1102 100.023C98.4212 99.7148 98.6936 99.4405 98.748 99.4439C98.8024 99.4474 99.1457 99.7791 99.4842 100.183ZM121.166 103.514C121.273 104.122 121.313 104.635 121.275 104.669C121.12 104.805 117 103.431 116.779 103.18C116.254 102.563 116.56 102.328 118.694 101.716L120.772 101.119L120.877 101.764C120.927 102.113 121.059 102.905 121.166 103.514ZM111.444 101.145C111.784 101.823 111.766 102.387 111.376 102.508C110.911 102.661 110.751 102.596 110.772 102.269C110.782 102.106 110.674 101.807 110.504 101.614C110.251 101.288 110.254 101.252 110.584 100.926C111.049 100.482 111.103 100.504 111.444 101.145ZM87.2912 100.592L90.5081 101.563L90.3688 103.468C90.2572 104.937 90.125 105.585 89.8067 106.294L89.3646 107.232L90.0317 107.912C90.4599 108.34 90.624 108.624 90.4754 108.67C90.3461 108.698 88.7583 109.034 86.9482 109.429L83.6626 110.113L83.1156 109.55L82.5855 109.006L82.955 108.063C83.6112 106.337 83.8964 104.715 83.9202 102.62C83.9181 101.508 83.8989 100.376 83.8448 100.081C83.8077 99.8055 83.8396 99.5888 83.9122 99.5934C84.0018 99.6173 85.5218 100.06 87.2912 100.592ZM111.394 103.092C111.607 103.179 111.843 103.467 111.933 103.783C112.066 104.265 112.04 104.391 111.773 104.575C111.337 104.839 111.251 104.76 110.986 103.777C110.75 102.906 110.751 102.887 111.394 103.092ZM95.2087 102.974C96.6574 103.394 96.6902 103.451 96.1104 104.836L95.7841 105.672L96.3798 106.329C96.7207 106.697 96.9879 107.079 96.9832 107.152C96.9786 107.224 95.8841 107.537 94.5367 107.816L92.0995 108.335L91.5424 107.644L90.9852 106.952L91.3254 105.898C91.5075 105.327 91.706 104.209 91.7567 103.41L91.849 101.958L92.8862 102.261C93.4393 102.442 94.4935 102.764 95.2087 102.974ZM114.716 104.124C115.305 104.307 115.637 104.529 115.747 104.809C115.87 105.164 115.75 105.338 114.821 106.191L113.74 107.161L113.023 106.404L112.306 105.648L112.993 105.436C113.772 105.212 113.775 105.176 113.467 104.282C113.27 103.667 113.272 103.631 113.556 103.74C113.716 103.805 114.252 103.967 114.716 104.124ZM99.2327 104.141C99.6091 104.238 99.872 104.401 99.8288 104.507C99.7856 104.614 99.996 105.028 100.298 105.43C100.62 105.815 100.868 106.214 100.862 106.305C100.85 106.486 99.0732 106.938 98.6015 106.908C98.4757 106.882 98.1518 106.533 97.9051 106.116C97.5101 105.453 97.4695 105.232 97.6233 104.531C97.7772 103.83 97.8374 103.743 98.1763 103.855C98.3724 103.922 98.8552 104.062 99.2327 104.141ZM119.647 105.641C122.257 106.409 122.701 106.874 121.409 107.43C120.042 108.018 118.974 109.353 118.188 111.399C118.081 111.648 115.047 108.666 114.981 108.261C114.905 107.745 115.799 106.854 116.693 106.547L117.605 106.24L117.39 105.607C117.251 105.215 117.247 104.996 117.374 105.004C117.483 105.011 118.503 105.295 119.647 105.641ZM110.696 106.329C110.678 106.62 110.427 106.841 109.788 107.146C109.317 107.39 108.907 107.546 108.872 107.525C108.856 107.488 108.797 107.265 108.741 107.007C108.675 106.601 108.755 106.497 109.316 106.259C109.782 106.089 109.996 105.883 110.013 105.611C110.037 105.23 110.057 105.213 110.381 105.562C110.569 105.756 110.711 106.093 110.696 106.329ZM126.56 107.776C130.294 108.925 130.204 108.901 130.188 109.155C130.18 109.283 129.631 109.612 128.975 109.899C127.663 110.471 126.373 111.574 125.529 112.815C124.966 113.654 124.11 115.951 124.058 116.768C124.04 117.04 123.952 117.289 123.858 117.338C123.763 117.387 122.679 116.388 121.45 115.089C118.973 112.507 119.099 112.824 119.82 110.938C120.278 109.746 121.168 108.928 122.55 108.396C123.744 107.943 123.843 107.822 123.573 107.203C123.475 107.015 123.431 106.848 123.468 106.85C123.522 106.854 124.916 107.271 126.56 107.776ZM113.349 109.013C113.333 109.268 112.968 109.554 112.179 109.941C111.557 110.266 110.801 110.692 110.496 110.91C110.192 111.109 109.894 111.218 109.826 111.141C109.758 111.063 109.609 110.543 109.478 110.025L109.267 109.045L109.894 108.629C110.237 108.396 110.781 108.139 111.079 108.049C111.412 107.96 111.699 107.742 111.767 107.527C111.899 107.171 111.953 107.193 112.636 107.911C113.047 108.32 113.361 108.814 113.349 109.013ZM107.52 107.585C107.613 107.846 107.67 108.087 107.669 108.105C107.667 108.141 107.317 108.192 106.896 108.238C106.457 108.265 105.943 108.323 105.721 108.382C105.388 108.452 105.356 108.395 105.459 107.91C105.541 107.477 105.697 107.323 106.158 107.225C107.119 107.013 107.371 107.065 107.52 107.585ZM135.616 110.576C137.35 111.106 138.775 111.598 138.754 111.651C138.75 111.706 138 112.041 137.084 112.42C133.42 113.9 131.285 116.826 130.22 121.826C130.035 122.744 129.839 123.534 129.782 123.566C129.705 123.634 128.557 122.486 125.808 119.613L124.971 118.74L125.283 117.265C126.049 113.522 127.493 111.718 130.584 110.657C131.291 110.429 131.869 110.21 131.907 110.195C131.944 110.179 131.884 109.974 131.79 109.731C131.614 109.356 131.633 109.339 132.008 109.454C132.24 109.541 133.865 110.046 135.616 110.576ZM101.301 107.991C101.295 108.082 101.435 108.182 101.598 108.193C101.816 108.206 101.617 108.467 100.96 109.063C99.7818 110.119 99.3827 110.093 99.1424 109.002L98.9562 108.207L99.7296 108.074C100.136 107.99 100.579 107.891 100.672 107.86C101.043 107.756 101.313 107.81 101.301 107.991ZM103.784 109.043C103.772 109.242 103.222 111.304 103.164 111.355C103.124 111.407 101.682 110.604 101.528 110.448C101.357 110.273 103.314 108.703 103.544 108.809C103.686 108.872 103.789 108.97 103.784 109.043ZM97.9758 109.876C98.0829 110.484 98.2683 111.007 98.3918 111.069C98.623 111.157 94.8945 114.51 94.568 114.49C94.441 114.482 94.2815 114.125 94.2004 113.682C93.9658 112.501 93.4822 110.939 93.127 110.224C92.9482 109.884 92.8408 109.567 92.8613 109.532C93.0349 109.379 97.5498 108.555 97.6529 108.652C97.7038 108.71 97.8506 109.267 97.9758 109.876ZM116.465 111.855C117.406 112.808 117.825 113.381 117.758 113.578C117.711 113.739 117.126 114.066 116.472 114.316C115.017 114.861 113.355 115.795 112.24 116.708C111.78 117.08 111.379 117.364 111.362 117.345C111.261 117.211 110.266 113.101 110.28 112.883C110.303 112.52 111.899 111.473 113.282 110.923C113.974 110.639 114.448 110.341 114.46 110.16C114.482 109.815 114.534 109.854 116.465 111.855ZM108.289 110.678C108.417 111.233 108.532 111.715 108.529 111.769C108.526 111.823 107.957 111.878 107.283 111.89C106.607 111.92 105.653 112.023 105.172 112.139C104.691 112.254 104.307 112.284 104.31 112.23C104.333 112.158 104.459 111.619 104.624 111.028C104.905 110.044 104.966 109.938 105.559 109.775C105.912 109.67 106.625 109.624 107.133 109.657L108.041 109.696L108.289 110.678ZM145.209 113.538C147.711 114.299 149.871 114.984 150.014 115.029C150.157 115.075 149.552 115.419 148.692 115.765C145.307 117.154 143.057 119.034 141.397 121.936C140.169 124.063 139.426 126.295 138.79 129.718C138.517 131.14 138.277 132.346 138.256 132.381C138.217 132.415 136.574 130.761 134.574 128.702L130.969 124.954L131.181 123.619C132.032 118.259 133.996 115.158 137.5 113.613C138.305 113.263 139.275 112.906 139.664 112.803C140.034 112.717 140.356 112.519 140.365 112.373C140.375 112.228 140.436 112.123 140.527 112.128C140.599 112.133 142.709 112.76 145.209 113.538ZM92.2434 111.516C92.4616 112.095 92.7517 113.262 92.9164 114.111C93.0798 114.978 93.29 115.684 93.3807 115.69C93.4895 115.697 92.3647 116.774 90.8971 118.084C89.4296 119.394 88.1415 120.46 88.0145 120.452C87.8875 120.444 87.7099 120.087 87.6287 119.644C87.0831 116.766 86.1449 114.045 85.0923 112.264C84.6804 111.582 84.573 111.265 84.7397 111.221C84.869 111.193 86.2357 110.897 87.7497 110.574C89.2808 110.27 90.7212 109.961 90.9797 109.905C91.5162 109.775 91.6861 109.968 92.2434 111.516ZM101.272 111.89C102.929 112.761 102.868 112.575 102.17 115.247C101.834 116.52 101.528 117.612 101.489 117.646C101.451 117.68 101.013 117.397 100.51 117C99.5891 116.304 97.5992 115.229 97.1638 115.202C97.0368 115.194 96.8068 115.088 96.6674 114.988C96.4589 114.829 96.7734 114.466 98.3363 113.089C99.3975 112.154 100.284 111.39 100.302 111.391C100.32 111.392 100.761 111.621 101.272 111.89ZM156.534 117.048L160.446 118.263L159.16 118.71C156.274 119.711 152.859 122.137 151.132 124.378C149.524 126.463 148.349 128.904 147.505 131.876C147.014 133.577 145.985 138.597 145.923 139.559C145.902 139.904 145.83 140.173 145.775 140.169C145.685 140.164 141.408 135.808 139.753 134.044L139.343 133.617L139.917 130.61C140.541 127.386 140.922 125.971 141.589 124.354C143.008 120.945 145.419 118.546 148.901 117.073C149.781 116.691 152.332 115.815 152.532 115.827C152.586 115.831 154.372 116.382 156.534 117.048ZM83.9431 112.865C85.1235 114.928 86.1609 118.092 86.4123 120.442C86.4595 120.846 86.5395 121.306 86.6198 121.476C86.7148 121.7 86.0531 122.369 83.9114 124.256C82.3485 125.633 81.0207 126.752 80.9662 126.748C80.8937 126.744 80.7808 126.226 80.6942 125.583C80.1904 121.759 78.3046 116.754 76.3108 114.02L75.6394 113.121L76.6182 112.91C77.1535 112.798 78.7606 112.445 80.1828 112.134C81.605 111.824 82.8594 111.575 82.9863 111.583C83.0963 111.572 83.5322 112.165 83.9431 112.865ZM108.979 113.566C109.064 113.662 110.145 117.869 110.133 118.05C110.131 118.087 109.368 118.056 108.427 117.96C107.07 117.819 106.302 117.861 104.737 118.126C103.65 118.33 102.731 118.454 102.697 118.416C102.629 118.338 103.816 113.985 103.956 113.793C104.038 113.652 106.23 113.263 107.07 113.226C107.728 113.194 108.845 113.393 108.979 113.566ZM123.535 119.268C123.53 119.341 122.629 119.757 121.527 120.197C118.965 121.237 116.866 122.453 114.906 124.06L113.349 125.346L112.532 122.159L111.715 118.953L113.159 117.733C114.314 116.749 115.032 116.339 116.753 115.628C117.932 115.138 118.91 114.654 118.916 114.563C118.923 114.454 119.97 115.45 121.235 116.752C122.499 118.072 123.539 119.195 123.535 119.268ZM74.8944 114.24C76.8974 116.828 78.6592 121.206 79.3418 125.369C79.4759 126.125 79.6212 126.991 79.6741 127.304C79.7495 127.837 79.5543 128.044 75.5137 131.724C73.1733 133.872 71.2052 135.606 71.1145 135.6C70.8243 135.581 68.2781 130.935 67.2648 128.538C66.6948 127.189 65.6072 124.24 64.8579 121.986C64.1086 119.733 63.289 117.439 63.0322 116.894C62.6793 116.142 62.641 115.884 62.8089 115.822C63.3102 115.672 74.0913 113.405 74.1979 113.448C74.2523 113.452 74.5569 113.818 74.8944 114.24ZM166.947 120.281C169.179 120.988 171.287 121.633 171.611 121.708C172.149 121.833 172.419 122.179 171.965 122.15C171.566 122.124 168.377 123.58 166.938 124.437C165.083 125.54 162.459 127.852 161.286 129.399C159.275 132.097 157.799 135.266 156.8 138.939C156.228 141.072 154.871 147.803 154.806 148.819C154.788 149.11 154.703 149.305 154.614 149.263C154.507 149.238 152.744 147.449 150.658 145.311L146.88 141.425L147.052 140.433C147.141 139.892 147.416 138.433 147.64 137.189C149.332 128.055 151.936 123.773 157.55 120.831C158.888 120.133 162.02 119.001 162.565 119.018C162.73 119.01 164.696 119.591 166.947 120.281ZM97.0761 116.581C98.5677 117.187 99.286 117.633 100.371 118.614L101.078 119.242L100.392 121.732C100.032 123.095 99.6073 124.617 99.465 125.137L99.2247 126.051L97.9809 124.988C97.2898 124.397 96.0356 123.497 95.1563 123.003C93.6276 122.122 90.8214 120.996 90.0413 120.946C89.7511 120.927 90.3368 120.309 92.4399 118.456C93.9835 117.095 95.3465 115.997 95.4735 116.005C95.6004 116.014 96.3304 116.279 97.0761 116.581ZM178.845 123.955C181.131 124.665 183.113 125.284 183.255 125.347C183.397 125.411 182.736 125.77 181.652 126.211C178.941 127.315 175.949 129.111 173.961 130.862C169.831 134.519 167.309 138.952 165.49 145.799C164.94 147.86 163.792 153.602 163.302 156.724C163.183 157.446 163.072 158.04 163.036 158.038C162.946 158.032 155.785 150.613 155.79 150.541C155.807 150.268 157.02 143.802 157.335 142.272C158.389 137.163 159.855 133.574 162.13 130.456C164.385 127.355 167.835 124.949 172.363 123.342C173.387 122.988 174.335 122.683 174.462 122.692C174.59 122.681 176.557 123.262 178.845 123.955ZM61.8501 117.438C62.1386 118.058 62.9898 120.427 63.738 122.699C65.7271 128.658 67.5629 132.731 69.6934 135.892L70.1429 136.559L66.3997 139.857C63.9879 141.982 62.6261 143.062 62.5832 142.877C62.555 142.747 62.3432 141.494 62.102 140.13C60.6473 131.78 57.4363 124.412 52.9269 119.131L52.0301 118.053L56.4056 117.128C58.8247 116.608 60.9262 116.213 61.0702 116.24C61.2142 116.268 61.5628 116.8 61.8501 117.438ZM110.415 119.636C110.602 119.848 112.233 126.004 112.135 126.107C112.098 126.123 111.629 126.038 111.092 125.895C109.335 125.455 106.397 125.541 103.282 126.127C101.752 126.412 100.483 126.605 100.486 126.551C100.49 126.496 100.878 124.971 101.355 123.197L102.236 119.936L103.73 119.648C104.56 119.482 105.556 119.29 105.961 119.225C106.972 119.071 110.177 119.366 110.415 119.636ZM127.217 122.947C129.44 125.222 129.54 125.374 129.13 125.512C127.661 125.983 124.348 127.395 123.009 128.112C120.708 129.351 119.298 130.336 117.29 132.122C116.288 132.988 115.46 133.683 115.444 133.646C115.41 133.607 115.032 132.106 114.565 130.29L113.754 126.994L114.479 126.202C115.827 124.756 118.664 122.822 120.817 121.902C122.203 121.298 124.608 120.43 124.769 120.477C124.822 120.498 125.936 121.608 127.217 122.947ZM51.9962 120.019C56.7658 125.791 59.6734 132.775 61.1418 142.056L61.4638 144.154L58.5809 146.815C56.9941 148.281 54.9647 150.121 54.059 150.902C52.5348 152.245 52.4213 152.31 52.3571 151.887C51.2366 144.871 50.0927 140.514 48.0255 135.498C45.9288 130.37 43.7739 126.733 40.5703 122.974L38.7573 120.835L43.9618 119.763C46.8221 119.18 49.3705 118.631 49.6302 118.556C50.5013 118.32 50.694 118.442 51.9962 120.019ZM91.0838 122.598C93.6013 123.396 96.2336 124.967 97.9098 126.678L98.8341 127.612L97.9552 130.837C97.4782 132.611 97.0308 134.205 96.966 134.365C96.8761 134.633 96.6654 134.51 95.7898 133.671C92.8685 130.914 88.8582 128.672 85.0245 127.663C84.2367 127.449 83.3956 127.213 83.1633 127.143C82.7699 127.027 82.9663 126.803 85.6097 124.474L88.4857 121.922L89.2044 122.078C89.6001 122.157 90.4411 122.393 91.0838 122.598ZM134.209 130.137L137.697 133.731L136.635 134.101C134.248 134.97 129.467 137.126 127.708 138.145C124.551 139.967 121.695 142.191 119.238 144.751L118.437 145.593L117.316 141.165C116.705 138.739 116.121 136.477 116.033 136.144C115.812 135.309 116.094 134.89 118.294 132.952C120.222 131.27 122.693 129.641 124.984 128.565C126.786 127.714 130.22 126.42 130.489 126.491C130.614 126.518 132.277 128.155 134.209 130.137ZM39.3168 123.496C40.3846 124.749 41.7139 126.474 42.28 127.312C46.7514 134.049 49.6125 142.051 50.9842 151.708L51.2239 153.382L47.0358 157.09C43.7172 160.014 42.8343 160.723 42.7597 160.463C42.6987 160.277 42.3729 158.525 42.0247 156.552C39.7529 143.575 34.7305 132.61 27.5512 124.916L26.2035 123.482L29.0093 122.895C30.5597 122.574 32.9414 122.069 34.308 121.774C35.6758 121.46 36.929 121.229 37.0923 121.24C37.2567 121.232 38.2659 122.262 39.3168 123.496ZM111.941 127.444L112.582 127.667L113.441 131.057C113.925 132.911 114.301 134.448 114.281 134.465C114.28 134.483 113.543 134.327 112.665 134.107C109.705 133.39 105.869 133.565 100.627 134.653C99.3159 134.934 98.2295 135.12 98.2125 135.101C98.1106 134.985 99.9752 128.286 100.13 128.15C100.36 127.964 104.141 127.221 106.014 126.975C107.611 126.785 110.802 127.025 111.941 127.444ZM83.7773 128.659C88.1722 129.722 92.552 132.17 95.4571 135.181L96.4832 136.23L95.0726 141.518C94.3052 144.422 93.6426 146.822 93.604 146.856C93.5836 146.891 93.0319 146.401 92.3988 145.759C87.3109 140.696 81.1768 137.48 73.8909 136.05L72.9375 135.862L77.1325 132.046C81.811 127.786 81.2834 128.063 83.7773 128.659ZM142.136 138.388L144.94 141.283L144.417 141.487C144.118 141.595 142.907 142.028 141.732 142.464C133.45 145.528 127.106 149.627 121.672 155.46L121.066 156.114L120.831 155.224C119.186 148.721 118.847 147.169 118.968 146.994C119.048 146.872 119.715 146.13 120.456 145.357C124.436 141.199 129.929 137.885 136.784 135.478C138.572 134.862 138.683 134.833 139.009 135.145C139.199 135.321 140.6 136.778 142.136 138.388ZM112.582 135.414C113.442 135.633 114.283 135.868 114.441 135.97C114.615 136.09 115.158 137.874 115.94 141.041C116.608 143.709 117.173 146.005 117.22 146.117C117.249 146.229 116.672 146.137 115.707 145.857C113.543 145.227 108.357 144.86 105.861 145.157C103.493 145.444 99.9762 146.041 97.2985 146.617C96.0793 146.886 95.0688 147.022 95.0372 146.947C94.992 146.799 97.637 136.705 97.7528 136.603C97.7913 136.569 99.3791 136.232 101.297 135.862C106.755 134.806 109.549 134.692 112.582 135.414ZM77.875 138.418C83.1979 140.069 88.1394 143.136 91.9981 147.192L93.1918 148.471L92.0465 152.736C91.4237 155.084 90.8352 157.18 90.7839 157.413C90.6678 157.807 90.5794 157.765 89.5023 156.657C84.5291 151.51 78.5384 147.757 71.8645 145.582C69.8843 144.927 65.1845 143.79 64.2411 143.73C64.096 143.72 65.6862 142.199 67.7893 140.346L71.6096 136.98L73.6264 137.346C74.7431 137.544 76.6429 138.03 77.875 138.418ZM149.882 146.337L153.626 150.202L151.466 150.94C141.039 154.505 131.669 160.362 125.497 167.206C124.851 167.912 124.286 168.496 124.231 168.492C124.176 168.507 123.91 167.524 123.604 166.319C123.316 165.134 122.723 162.709 122.271 160.93L121.456 157.707L122.263 156.755C126.374 151.968 132.662 147.61 139.659 144.702C143.027 143.294 145.711 142.334 145.978 142.424C146.05 142.447 147.813 144.218 149.882 146.337ZM115.604 147.181C116.625 147.465 117.5 147.739 117.568 147.816C117.701 148.007 119.886 156.622 119.807 156.708C119.769 156.742 118.89 156.523 117.871 156.221C116.227 155.733 115.576 155.655 111.676 155.407C107.975 155.172 106.991 155.182 105.119 155.391C102.678 155.691 98.036 156.508 94.5837 157.236C93.3282 157.502 92.2395 157.725 92.1669 157.72C92.0762 157.714 92.4043 156.277 92.8802 154.521C93.3731 152.784 93.9014 150.776 94.0722 150.094C94.2442 149.394 94.4853 148.753 94.6022 148.633C94.8723 148.395 101.865 146.981 104.491 146.656C108.714 146.123 112.273 146.295 115.604 147.181ZM67.3595 145.678C75.8354 147.585 83.0412 151.707 89.0835 158.089L90.2432 159.329L88.7369 164.975C87.9206 168.077 87.2284 170.658 87.1898 170.692C87.1512 170.726 86.4478 170.043 85.6278 169.189C79.3589 162.647 71.9677 158.002 63.6309 155.339C61.2574 154.568 57.1312 153.576 55.0384 153.261L53.6315 153.044L58.1352 148.955L62.6196 144.884L64.1183 145.089C64.9494 145.197 66.4084 145.454 67.3595 145.678ZM158.378 155.098C160.362 157.12 161.965 158.845 161.942 158.916C161.921 158.97 161.133 159.612 160.176 160.335C159.238 161.059 156.162 163.598 153.369 165.99C147.805 170.722 145.445 172.595 142.989 174.279C139.314 176.78 135.139 178.847 131.346 180.064C129.432 180.671 127.432 181.182 127.348 181.067C127.333 181.03 127.111 180.214 126.863 179.25C126.614 178.286 126.021 175.879 125.527 173.897C124.815 171.063 124.667 170.233 124.832 169.934C125.654 168.455 131.595 162.964 134.741 160.758C138.648 158.035 143.457 155.443 148.036 153.602C150.821 152.485 154.304 151.285 154.572 151.356C154.698 151.383 156.395 153.058 158.378 155.098ZM116.191 157.153C118.686 157.731 120.148 158.225 120.29 158.58C120.37 158.749 120.999 161.177 121.695 163.974C122.392 166.771 122.988 169.142 123.017 169.253C123.065 169.366 121.826 169.378 119.593 169.254C115.491 169.029 112.24 169.169 104.139 169.966C94.096 170.931 88.5442 171.161 88.58 170.598C88.6235 170.2 91.6096 159.325 91.706 159.24C91.9569 159.019 100.921 157.256 103.621 156.9C107.847 156.33 113.031 156.441 116.191 157.153ZM56.1978 154.793C68.0375 157.077 77.068 162.009 85.209 170.62L86.7629 172.25L85.383 177.339C84.6396 180.154 84.0168 182.502 83.994 182.574C83.9516 182.954 83.4668 182.558 82.136 181.143C75.3679 173.858 67.237 168.529 57.6731 165.113C54.0041 163.804 47.0972 162.143 44.6664 161.988C44.1766 161.957 43.7809 161.877 43.7855 161.804C43.7902 161.732 45.6856 159.993 47.9817 157.97L52.1879 154.264L53.1312 154.324C53.6573 154.358 55.0279 154.572 56.1978 154.793ZM123.442 170.884C123.614 171.333 125.936 180.941 125.897 180.975C125.877 181.01 125.412 180.871 124.895 180.693C121.67 179.558 118.628 178.999 113.837 178.713C106.906 178.29 102.009 178.835 89.5671 181.434C87.3703 181.895 85.5637 182.236 85.5115 182.196C85.4617 182.12 86.7621 177.135 87.8936 173.088C88.1735 172.121 87.8038 172.207 92.2714 172.127C95.0608 172.086 98.2268 171.85 105.302 171.152C113.276 170.347 117.181 170.231 121.092 170.607C122.376 170.744 123.443 170.866 123.442 170.884Z" fill="#AEABAE"/>
  <path d="M145.071 106.744C144.929 106.009 145.159 105.255 145.687 104.727C145.972 104.441 146.328 104.238 146.717 104.139C147.083 104.046 147.304 103.673 147.211 103.306C147.118 102.94 146.745 102.718 146.379 102.812C145.752 102.971 145.178 103.299 144.719 103.758C143.869 104.609 143.499 105.822 143.727 107.004C143.754 107.143 143.821 107.264 143.915 107.358C144.07 107.513 144.297 107.591 144.529 107.546C144.9 107.474 145.143 107.115 145.071 106.744Z" fill="#3B3A3C"/>
  <path d="M141.18 102.697L149.417 99.2914C149.758 99.1282 149.902 98.7195 149.739 98.3782C149.576 98.0368 149.167 97.8927 148.826 98.0559L140.288 101.606C140.098 101.697 139.96 101.87 139.915 102.077L138.777 107.264C138.725 107.5 138.803 107.735 138.962 107.895C139.051 107.984 139.166 108.05 139.299 108.079C139.668 108.16 140.033 107.927 140.114 107.557L141.18 102.697Z" fill="#3B3A3C"/>
  <path d="M150.137 97.3669C150.163 97.3115 150.179 97.2544 150.189 97.197C150.407 97.4701 150.8 97.5369 151.098 97.3418C151.414 97.1346 151.503 96.7102 151.296 96.3937L150.43 95.0702C150.782 94.9516 150.976 94.5723 150.864 94.2159L147.332 83.0033L157.91 73.7252C158.194 73.4758 158.223 73.0432 157.974 72.7588C157.726 72.4739 157.292 72.4459 157.008 72.6951L146.094 82.2677C145.89 82.4469 145.811 82.7296 145.893 82.9887L149.019 92.9152L145.538 87.5946C145.393 87.3741 145.136 87.2562 144.875 87.2909L137.733 88.2397C137.358 88.2894 137.095 88.6336 137.145 89.0086C137.165 89.1637 137.236 89.2997 137.339 89.4024C137.484 89.5479 137.693 89.6265 137.913 89.5974L144.629 88.7052L149.657 96.389L140.997 92.3669C140.847 92.297 140.676 92.2842 140.517 92.331L134.196 94.1864C133.833 94.2929 133.626 94.6734 133.732 95.0363C133.765 95.1502 133.826 95.2489 133.904 95.3273C134.075 95.4986 134.332 95.5736 134.581 95.5005L140.655 93.7176L149.228 97.6996C149.571 97.8589 149.978 97.7099 150.137 97.3669Z" fill="#3B3A3C"/>
  <path d="M153.256 100.695C157.358 104.8 164.008 104.8 168.11 100.695C172.211 96.5899 172.211 89.9347 168.11 85.8299C164.008 81.7251 157.358 81.7251 153.256 85.8299C149.155 89.9347 149.155 96.5899 153.256 100.695Z" fill="#57555C"/>
  <path d="M168.11 100.695C172.212 96.5902 172.212 89.9349 168.11 85.8299C164.008 81.725 157.358 81.7252 153.256 85.83C150.29 88.7989 149.469 93.1017 150.794 96.8089C149.784 97.0048 148.802 97.5037 148.023 98.2784C145.902 100.387 145.891 103.816 147.997 105.938C150.103 108.06 153.53 108.072 155.651 105.964C156.45 105.17 156.939 104.188 157.139 103.159C160.843 104.485 165.143 103.664 168.11 100.695Z" fill="#57555C"/>
  <path d="M165.729 116.258L166.677 109.11C166.712 108.849 166.594 108.591 166.374 108.447L161.127 105.008L171.103 108.155C171.362 108.236 171.644 108.157 171.823 107.953L181.388 97.0307C181.637 96.7463 181.61 96.312 181.325 96.0644C181.041 95.815 180.608 95.8436 180.359 96.128L171.088 106.714L161.628 103.73C163.993 103.517 166.3 102.507 168.11 100.695C172.212 96.5903 172.212 89.9349 168.11 85.83C166.913 84.6317 165.498 83.7839 163.993 83.2852C164.743 83.7273 165.449 84.2703 166.093 84.9147C170.195 89.0196 170.195 95.675 166.093 99.7798C163.819 102.056 160.762 103.069 157.79 102.821C157.79 102.821 157.29 102.77 156.818 102.694C156.325 102.606 155.836 102.483 155.357 102.325C155.36 102.326 155.363 102.328 155.366 102.33C155.108 103.081 154.679 103.778 154.071 104.382C152.226 106.216 149.393 106.445 147.301 105.077C147.499 105.381 147.731 105.67 147.997 105.938C148.502 106.446 149.082 106.832 149.702 107.098C149.7 107.106 149.697 107.113 149.695 107.12C149.597 107.509 149.393 107.865 149.108 108.151C148.58 108.679 147.827 108.91 147.093 108.767C146.722 108.695 146.363 108.938 146.291 109.309C146.246 109.541 146.324 109.769 146.479 109.924C146.572 110.018 146.693 110.085 146.833 110.112C148.014 110.341 149.226 109.97 150.076 109.119C150.531 108.664 150.856 108.095 151.017 107.475C151.807 107.595 152.618 107.541 153.388 107.311L151.283 112.808L146.427 113.875C146.057 113.956 145.824 114.321 145.905 114.691C145.934 114.823 146 114.938 146.089 115.028C146.248 115.187 146.483 115.265 146.72 115.213L151.903 114.074C152.109 114.029 152.283 113.891 152.374 113.701L155.212 106.355C155.363 106.234 155.51 106.104 155.651 105.964C155.944 105.673 156.194 105.36 156.405 105.031L160.255 113.333L158.474 119.412C158.401 119.661 158.476 119.918 158.647 120.089C158.725 120.168 158.824 120.228 158.938 120.262C159.3 120.368 159.68 120.16 159.787 119.797L161.641 113.472C161.688 113.312 161.675 113.141 161.605 112.991L157.586 104.324L165.264 109.356L164.372 116.077C164.343 116.297 164.422 116.506 164.567 116.652C164.67 116.755 164.806 116.826 164.961 116.846C165.336 116.896 165.68 116.632 165.729 116.258Z" fill="#3B3A3C"/>
  <path d="M148.095 102.594C148.131 102.64 148.169 102.686 148.212 102.728C148.752 103.27 149.629 103.27 150.17 102.728C150.711 102.187 150.711 101.31 150.17 100.769C149.88 100.479 149.495 100.346 149.116 100.366C149.258 100.183 149.413 100.007 149.582 99.8385C150.176 99.2479 150.874 98.8275 151.615 98.5704C152.06 99.329 152.606 100.044 153.257 100.695C153.903 101.342 154.612 101.886 155.365 102.329C155.219 102.198 155.075 102.062 154.934 101.922C150.832 97.8166 150.832 91.1613 154.934 87.0564C158.39 83.5982 163.654 83.0536 167.679 85.4221C163.555 81.7301 157.217 81.8658 153.256 85.8298C150.077 89.0122 149.559 93.2692 150.787 96.8106C149.775 97.0101 148.809 97.4969 148.023 98.2783C145.902 100.387 145.891 103.816 147.998 105.938C148.267 106.21 148.559 106.444 148.866 106.647C148.071 105.432 147.815 103.969 148.095 102.594Z" fill="#787780"/>
  <path d="M157.987 92.3983C159.488 93.9006 161.921 93.9006 163.422 92.3983C164.924 90.8961 164.924 88.4605 163.422 86.9583C161.921 85.4561 159.488 85.4561 157.987 86.9583C156.486 88.4605 156.486 90.8961 157.987 92.3983Z" fill="#787780"/>
</svg>
